<svg width="44" height="44" viewBox="0 0 44 44" fill="none" xmlns="http://www.w3.org/2000/svg">
<g id="fluent:share-screen-stop-28-regular">
<path id="Vector" d="M17.7225 16.0553C17.4991 15.8471 17.2036 15.7338 16.8983 15.7392C16.593 15.7446 16.3016 15.8683 16.0857 16.0842C15.8698 16.3001 15.7461 16.5915 15.7407 16.8968C15.7353 17.2021 15.8486 17.4976 16.0568 17.721L20.3311 21.9953L16.0553 26.2775C15.8407 26.4998 15.722 26.7976 15.7248 27.1066C15.7277 27.4156 15.8518 27.7112 16.0704 27.9296C16.289 28.148 16.5847 28.2718 16.8937 28.2744C17.2027 28.2769 17.5004 28.158 17.7225 27.9432L21.9968 23.6642L26.2774 27.9432C26.5008 28.1514 26.7963 28.2647 27.1016 28.2593C27.407 28.2539 27.6983 28.1302 27.9142 27.9143C28.1302 27.6984 28.2539 27.407 28.2592 27.1017C28.2646 26.7964 28.1513 26.5009 27.9431 26.2775L23.6641 21.9969L27.9431 17.7305C28.0527 17.6211 28.1397 17.4912 28.199 17.3482C28.2584 17.2052 28.2891 17.052 28.2892 16.8971C28.2893 16.7423 28.259 16.589 28.1999 16.4459C28.1408 16.3028 28.0541 16.1728 27.9447 16.0632C27.8353 15.9536 27.7054 15.8666 27.5624 15.8073C27.4195 15.7479 27.2662 15.7172 27.1114 15.7171C26.9565 15.7169 26.8032 15.7473 26.6601 15.8064C26.517 15.8655 26.387 15.9522 26.2774 16.0616L21.9968 20.3312L17.7225 16.0553ZM6.67854 7.85718C5.74108 7.85718 4.84199 8.22947 4.17896 8.89221C3.51594 9.55494 3.14324 10.4539 3.14282 11.3913V32.6056C3.14262 33.0701 3.23392 33.53 3.41151 33.9591C3.58911 34.3883 3.84951 34.7783 4.17785 35.1068C4.5062 35.4352 4.89604 35.6958 5.32511 35.8736C5.75419 36.0514 6.21409 36.1429 6.67854 36.1429H37.3214C38.2591 36.1429 39.1584 35.7704 39.8215 35.1073C40.4846 34.4442 40.8571 33.5449 40.8571 32.6072V11.3929C40.8571 10.4552 40.4846 9.55584 39.8215 8.89276C39.1584 8.22969 38.2591 7.85718 37.3214 7.85718H6.67854ZM5.49997 11.3929C5.49997 11.0803 5.62414 10.7805 5.84516 10.5595C6.06619 10.3385 6.36596 10.2143 6.67854 10.2143H37.3214C37.634 10.2143 37.9337 10.3385 38.1548 10.5595C38.3758 10.7805 38.5 11.0803 38.5 11.3929V32.6072C38.5 32.9198 38.3758 33.2195 38.1548 33.4406C37.9337 33.6616 37.634 33.7858 37.3214 33.7858H6.67854C6.36596 33.7858 6.06619 33.6616 5.84516 33.4406C5.62414 33.2195 5.49997 32.9198 5.49997 32.6072V11.3929Z" fill="#8B4DF0"/>
</g>
</svg>
