<svg width="80" height="80" viewBox="0 0 80 80" fill="none" xmlns="http://www.w3.org/2000/svg">
<g id="fluent:thinking-24-filled">
<path id="Vector" d="M13.3334 59.9998C15.1015 59.9998 16.7972 60.7022 18.0475 61.9525C19.2977 63.2027 20.0001 64.8984 20.0001 66.6665C20.0001 68.4346 19.2977 70.1303 18.0475 71.3805C16.7972 72.6308 15.1015 73.3332 13.3334 73.3332C11.5653 73.3332 9.86961 72.6308 8.61937 71.3805C7.36913 70.1303 6.66675 68.4346 6.66675 66.6665C6.66675 64.8984 7.36913 63.2027 8.61937 61.9525C9.86961 60.7022 11.5653 59.9998 13.3334 59.9998ZM31.6667 49.9998C33.8769 49.9998 35.9965 50.8778 37.5593 52.4406C39.1221 54.0034 40.0001 56.123 40.0001 58.3332C40.0001 60.5433 39.1221 62.6629 37.5593 64.2257C35.9965 65.7885 33.8769 66.6665 31.6667 66.6665C29.4566 66.6665 27.337 65.7885 25.7742 64.2257C24.2114 62.6629 23.3334 60.5433 23.3334 58.3332C23.3334 56.123 24.2114 54.0034 25.7742 52.4406C27.337 50.8778 29.4566 49.9998 31.6667 49.9998ZM40.0001 6.6665C44.24 6.66734 48.3443 8.16102 51.593 10.8856C54.8418 13.6101 57.0275 17.3915 57.7667 21.5665H58.0401C61.3685 21.5665 64.5607 22.8887 66.9143 25.2423C69.2679 27.5959 70.5901 30.788 70.5901 34.1165C70.5901 37.445 69.2679 40.6371 66.9143 42.9907C64.5607 45.3443 61.3685 46.6665 58.0401 46.6665H21.9601C18.6316 46.6665 15.4395 45.3443 13.0859 42.9907C10.7323 40.6371 9.41008 37.445 9.41008 34.1165C9.41008 30.788 10.7323 27.5959 13.0859 25.2423C15.4395 22.8887 18.6316 21.5665 21.9601 21.5665H22.2334C22.9727 17.3915 25.1584 13.6101 28.4071 10.8856C31.6558 8.16102 35.7601 6.66734 40.0001 6.6665Z" fill="#8B4DF0"/>
</g>
</svg>
