<svg width="46" height="55" viewBox="0 0 46 55" fill="none" xmlns="http://www.w3.org/2000/svg">
<g id="Group 17">
<g id="Group 11">
<circle id="Ellipse 1" cx="22.8798" cy="22.8799" r="16.7324" transform="rotate(88.2292 22.8798 22.8799)" fill="white"/>
<path id="Vector" d="M15.3263 9.16349L14.4681 10.0943L13.4161 9.08858C12.7752 9.5286 12.1692 10.0177 11.6037 10.5513L35.8902 33.3798C36.3729 32.7807 36.8174 32.1517 37.221 31.4965L36.169 30.4908L37.0278 29.5766L37.8552 30.3549C39.46 27.1338 39.9844 23.4807 39.3507 19.9377C38.717 16.3947 36.9588 13.1504 34.337 10.686C31.7152 8.22172 28.3695 6.66865 24.7961 6.25721C21.2226 5.84577 17.6119 6.59787 14.4995 8.40196L15.3263 9.16349ZM34.6146 27.3067L33.7559 28.2208L31.3432 25.9676L32.2019 25.0535L34.6146 27.3067ZM29.7887 22.7836L28.9295 23.681L26.5168 21.4278L27.3755 20.5137L29.7887 22.7836ZM24.9624 18.2437L24.1036 19.1579L21.7072 16.8874L22.5659 15.9733L24.9624 18.2437ZM20.1527 13.7034L19.2773 14.618L16.8641 12.3481L17.7228 11.4339L20.1527 13.7034ZM8.53866 14.2634L9.59064 15.2691L8.7319 16.1833L7.90452 15.405C6.29969 18.6261 5.77524 22.2792 6.40897 25.8222C7.04271 29.3652 8.80087 32.6095 11.4227 35.0739C14.0444 37.5382 17.3902 39.0913 20.9636 39.5027C24.537 39.9141 28.1477 39.162 31.2602 37.3579L30.4333 36.5964L31.2915 35.6656L32.3435 36.6713C32.9845 36.2313 33.5905 35.7422 34.156 35.2086L9.86951 12.3801C9.38674 12.9792 8.94225 13.6082 8.53866 14.2634ZM28.8789 33.4124L28.0201 34.3265L25.607 32.0565L26.4824 31.1419L28.8789 33.4124ZM24.0525 28.8725L23.1938 29.7866L20.7973 27.5162L21.656 26.6021L24.0525 28.8725ZM19.2429 24.3321L18.3841 25.2462L15.9715 22.993L16.8297 22.0622L19.2429 24.3321ZM14.4165 19.7923L13.5577 20.7064L11.1446 18.4365L12.0033 17.5223L14.4165 19.7923Z" fill="#940707"/>
</g>
<path id="Ellipse 12" d="M9.06173 39.0113C8.43533 39.7343 8.51006 40.8341 9.27826 41.4043C11.6681 43.1779 14.3846 44.4735 17.2787 45.2131C20.7333 46.0958 24.3461 46.162 27.8307 45.4064C31.3154 44.6507 34.5762 43.094 37.3548 40.8595C40.1335 38.625 42.3536 35.7742 43.8394 32.5329C45.3251 29.2915 46.0357 25.7487 45.9148 22.1852C45.7938 18.6216 44.8447 15.1351 43.1426 12.002C41.4405 8.8688 39.0322 6.17505 36.1085 4.1341C33.6591 2.4243 30.9044 1.21201 28.0008 0.559261C27.0674 0.349438 26.1854 1.01072 26.0465 1.95724C25.9076 2.90376 26.565 3.77598 27.4955 3.99829C29.8675 4.56503 32.1174 5.57301 34.1255 6.9748C36.6082 8.70786 38.6531 10.9952 40.0985 13.6557C41.5438 16.3162 42.3497 19.2767 42.4524 22.3027C42.5551 25.3286 41.9517 28.337 40.6901 31.0893C39.4285 33.8417 37.5433 36.2624 35.1838 38.1598C32.8244 40.0572 30.0555 41.379 27.0965 42.0207C24.1376 42.6623 21.0699 42.6062 18.1364 41.8566C15.7636 41.2502 13.5314 40.2037 11.5538 38.7767C10.778 38.2169 9.68814 38.2882 9.06173 39.0113Z" fill="#003F66"/>
<rect id="Rectangle 8" x="20.4124" y="43.0927" width="3.96908" height="10.2062" fill="#003F66"/>
<rect id="Rectangle 9" x="16.4434" y="55.0001" width="3.40207" height="11.9072" rx="1.70103" transform="rotate(-90 16.4434 55.0001)" fill="#003F66"/>
</g>
</svg>
