<svg width="49" height="43" viewBox="0 0 49 43" fill="none" xmlns="http://www.w3.org/2000/svg">
<g id="Group 5">
<path id="Vector" d="M9.63615 22.0697C11.6852 20.706 12.0198 17.6072 10.3834 15.1483C8.74701 12.6894 5.75932 11.8015 3.71022 13.1651C1.66112 14.5288 1.32656 17.6276 2.96296 20.0865C4.59936 22.5455 7.58705 23.4333 9.63615 22.0697Z" fill="#19BBBA"/>
<path id="Vector_2" d="M39.3639 22.0697C37.3148 20.706 36.9802 17.6072 38.6166 15.1483C40.253 12.6894 43.2407 11.8015 45.2898 13.1651C47.3389 14.5288 47.6734 17.6276 46.037 20.0865C44.4006 22.5455 41.413 23.4333 39.3639 22.0697Z" fill="#19BBBA"/>
<path id="Vector_3" d="M18.0653 11.5292C20.4208 10.8149 21.6354 7.94446 20.7782 5.11792C19.921 2.29138 17.3167 0.579087 14.9612 1.29341C12.6058 2.00772 11.3912 4.87815 12.2484 7.70469C13.1055 10.5312 15.7099 12.2435 18.0653 11.5292Z" fill="#19BBBA"/>
<path id="Vector_4" d="M31.0055 11.5292C28.65 10.8149 27.4354 7.94446 28.2926 5.11792C29.1498 2.29138 31.7541 0.579087 34.1096 1.29341C36.465 2.00772 37.6796 4.87815 36.8224 7.70469C35.9653 10.5312 33.3609 12.2435 31.0055 11.5292Z" fill="#19BBBA"/>
<path id="Vector_5" d="M22.7944 39.181C20.4389 38.4667 19.0889 36.0429 19.779 33.7673C20.4691 31.4917 22.938 30.2261 25.2934 30.9404C27.6489 31.6547 28.9989 34.0785 28.3088 36.3541C27.6187 38.6297 25.1498 39.8954 22.7944 39.181Z" fill="#19BBBA"/>
<path id="Vector_6" d="M24.0662 12.4786C17.6267 12.4786 12.4788 17.5276 12.4788 23.8433C12.4788 26.0274 13.1426 27.7144 14.2953 29.425L22.8471 42.151C23.1066 42.5357 23.5533 42.7844 24.0662 42.7844C24.5792 42.7844 25.0319 42.5298 25.2853 42.151L33.8371 29.425C34.9898 27.7144 35.6537 26.0274 35.6537 23.8433C35.6537 17.5276 30.5057 12.4786 24.0662 12.4786ZM24.0662 30.153C20.5115 30.153 17.6267 27.3237 17.6267 23.8314C17.6267 20.3392 20.5115 17.5099 24.0662 17.5099C27.6209 17.5099 30.5057 20.3392 30.5057 23.8314C30.5057 27.3237 27.6209 30.153 24.0662 30.153Z" fill="#19BBBA"/>
</g>
</svg>
