<svg width="80" height="80" viewBox="0 0 80 80" fill="none" xmlns="http://www.w3.org/2000/svg">
<g id="ic:baseline-design-services">
<path id="Vector" d="M54.1333 38.3669L59.3667 33.1335L46.8667 20.6335L41.6333 25.8669L27.8333 12.1002C25.2333 9.50021 21 9.50021 18.4 12.1002L12.0667 18.4335C9.46667 21.0335 9.46667 25.2669 12.0667 27.8669L25.8333 41.6335L10 57.5002V70.0002H22.5L38.3667 54.1335L52.1333 67.9002C55.3 71.0669 59.5667 69.9002 61.5667 67.9002L67.9 61.5669C70.5 58.9669 70.5 54.7335 67.9 52.1335L54.1333 38.3669ZM30.6 36.9002L16.8 23.1335L23.1 16.8002L27.3333 21.0335L23.4 25.0002L28.1 29.7002L32.0667 25.7335L36.9 30.5669L30.6 36.9002ZM56.8667 63.2002L43.1 49.4335L49.4333 43.1002L54.2667 47.9335L50.3 51.9002L55 56.6002L58.9667 52.6335L63.2 56.8669L56.8667 63.2002ZM69.0333 23.4669C69.3423 23.1585 69.5875 22.7922 69.7548 22.389C69.922 21.9857 70.0081 21.5534 70.0081 21.1169C70.0081 20.6803 69.922 20.248 69.7548 19.8448C69.5875 19.4416 69.3423 19.0753 69.0333 18.7669L61.2333 10.9669C59.6667 9.40021 57.5 10.0002 56.5333 10.9669L50.4333 17.0669L62.9333 29.5669L69.0333 23.4669Z" fill="#8B4DF0"/>
</g>
</svg>
