<svg width="80" height="80" viewBox="0 0 80 80" fill="none" xmlns="http://www.w3.org/2000/svg">
<g id="iconoir:design-nib-solid">
<g id="Group">
<path id="Vector" d="M10.9865 68.6734L32.1999 47.46M58.9132 38.0267L52.5632 57.08C52.4614 57.3848 52.2877 57.6605 52.0568 57.8839C51.8259 58.1073 51.5445 58.2718 51.2365 58.3634L12.3099 69.9367C11.9592 70.0409 11.5866 70.0468 11.2328 69.954C10.8789 69.8611 10.5573 69.6729 10.303 69.41C10.0486 69.147 9.87126 68.8194 9.7902 68.4626C9.70913 68.1059 9.72747 67.7337 9.84322 67.3867L22.4832 29.4734C22.5738 29.2011 22.7219 28.9516 22.9175 28.7417C23.113 28.5317 23.3514 28.3663 23.6165 28.2567L41.5732 20.8634C41.9383 20.7126 42.3398 20.6733 42.7272 20.7504C43.1145 20.8275 43.4704 21.0176 43.7499 21.2967L58.4299 35.98C58.6925 36.2426 58.8769 36.5732 58.9623 36.9347C59.0476 37.2962 59.0306 37.6743 58.9132 38.0267Z" stroke="#8B4DF0" stroke-width="3" stroke-linecap="round" stroke-linejoin="round"/>
<path id="Vector_2" d="M61.3433 10.6068L69.2233 18.4868C69.8155 19.0533 70.2885 19.7324 70.6146 20.4843C70.9408 21.2361 71.1134 22.0455 71.1225 22.865C71.1315 23.6844 70.9768 24.4974 70.6674 25.2563C70.358 26.0152 69.9001 26.7046 69.3206 27.2841C68.7411 27.8635 68.0517 28.3214 67.2928 28.6309C66.534 28.9403 65.721 29.095 64.9015 29.0859C64.082 29.0769 63.2726 28.9042 62.5208 28.5781C61.769 28.252 61.0899 27.7789 60.5233 27.1868L52.64 19.3068C51.5281 18.1446 50.9155 16.5933 50.9332 14.985C50.951 13.3767 51.5978 11.8392 52.7351 10.7019C53.8724 9.56462 55.4099 8.91782 57.0182 8.90003C58.6265 8.88225 60.1811 9.4949 61.3433 10.6068Z" fill="#8B4DF0" stroke="#8B4DF0" stroke-width="3" stroke-linecap="round" stroke-linejoin="round"/>
<path id="Vector_3" d="M39.2698 40.3868C38.8085 39.9092 38.2568 39.5283 37.6468 39.2663C37.0368 39.0042 36.3807 38.8663 35.7168 38.8605C35.0529 38.8548 34.3945 38.9813 33.78 39.2327C33.1655 39.4841 32.6073 39.8554 32.1378 40.3248C31.6683 40.7943 31.2971 41.3525 31.0457 41.967C30.7943 42.5815 30.6678 43.2399 30.6735 43.9038C30.6793 44.5677 30.8172 45.2238 31.0793 45.8338C31.3413 46.4438 31.7222 46.9956 32.1998 47.4568C33.1428 48.3676 34.4058 48.8716 35.7168 48.8602C37.0278 48.8488 38.2818 48.3229 39.2089 47.3959C40.1359 46.4688 40.6618 45.2148 40.6732 43.9038C40.6845 42.5928 40.1806 41.3298 39.2698 40.3868Z" stroke="#8B4DF0" stroke-width="3" stroke-linecap="round" stroke-linejoin="round"/>
</g>
</g>
</svg>
