<svg width="75" height="75" viewBox="0 0 75 75" fill="none" xmlns="http://www.w3.org/2000/svg">
<g id="ph:books-fill">
<path id="Vector" d="M67.8662 56.997L58.1426 10.7666C58.0168 10.162 57.7728 9.58823 57.4247 9.07823C57.0765 8.56824 56.631 8.13207 56.1138 7.79477C55.5965 7.45747 55.0177 7.22569 54.4106 7.11276C53.8035 6.99982 53.1801 7.00795 52.5762 7.13667L38.8623 10.0839C37.6493 10.3495 36.5902 11.0834 35.9153 12.1258C35.2405 13.1682 35.0046 14.4349 35.2588 15.6503L44.9824 61.8808C45.1991 62.9356 45.7723 63.8835 46.6057 64.5654C47.4391 65.2473 48.4818 65.6214 49.5586 65.625C49.8914 65.6244 50.2233 65.5891 50.5488 65.5195L64.2627 62.5722C65.4772 62.306 66.5373 61.5707 67.2123 60.5265C67.8872 59.4823 68.1222 58.2137 67.8662 56.997ZM39.8438 14.6923V14.666L53.5547 11.7363L54.5303 16.3857L40.8193 19.3359L39.8438 14.6923ZM42.7734 28.5732L41.792 23.915L55.5088 20.9677L56.4873 25.6259L42.7734 28.5732ZM63.2812 57.9902L49.5703 60.9199L48.5947 56.2705L62.3057 53.3203L63.2812 57.9638V57.9902ZM30.4688 9.37495H16.4062C15.163 9.37495 13.9708 9.86881 13.0917 10.7479C12.2126 11.627 11.7188 12.8192 11.7188 14.0625V60.9375C11.7188 62.1807 12.2126 63.3729 13.0917 64.252C13.9708 65.1311 15.163 65.625 16.4062 65.625H30.4688C31.712 65.625 32.9042 65.1311 33.7833 64.252C34.6624 63.3729 35.1562 62.1807 35.1562 60.9375V14.0625C35.1562 12.8192 34.6624 11.627 33.7833 10.7479C32.9042 9.86881 31.712 9.37495 30.4688 9.37495ZM16.4062 14.0625H30.4688V18.75H16.4062V14.0625ZM30.4688 60.9375H16.4062V56.25H30.4688V60.9375Z" fill="#8B4DF0"/>
</g>
</svg>
