<svg width="75" height="75" viewBox="0 0 75 75" fill="none" xmlns="http://www.w3.org/2000/svg">
<g id="solar:suitcase-lines-bold">
<path id="Vector" fill-rule="evenodd" clip-rule="evenodd" d="M37.6624 3.90625H37.3375C34.5281 3.90625 32.1875 3.90625 30.3312 4.15625C28.3687 4.41875 26.5968 5 25.1749 6.42188C23.75 7.84688 23.1687 9.61875 22.9062 11.5781C22.6562 13.4375 22.6562 15.7812 22.6562 18.5875V18.8313C16.3406 19.0375 12.5468 19.775 9.91245 22.4125C7.74058 24.5812 6.85933 27.5344 6.49683 32.0312H68.5031C68.1406 27.5312 67.2593 24.5812 65.0874 22.4125C62.4531 19.775 58.6593 19.0375 52.3437 18.8313V18.5875C52.3437 15.7812 52.3437 13.4375 52.0937 11.5813C51.8312 9.61875 51.25 7.84687 49.825 6.425C48.4031 5 46.6312 4.41875 44.6687 4.15625C42.8125 3.90625 40.4687 3.90625 37.6624 3.90625ZM47.6562 18.7562V18.75C47.6562 15.7375 47.6499 13.7125 47.45 12.2031C47.2531 10.7625 46.9187 10.1437 46.5125 9.7375C46.1062 9.33125 45.4874 8.99687 44.0437 8.8C42.5374 8.6 40.5125 8.59375 37.5 8.59375C34.4874 8.59375 32.4625 8.6 30.9531 8.80312C29.5125 8.99687 28.8937 9.33125 28.4875 9.74063C28.0812 10.1469 27.7468 10.7625 27.55 12.2031C27.3531 13.7125 27.3437 15.7375 27.3437 18.75V18.7562C28.5687 18.75 29.8687 18.75 31.25 18.75H43.75C45.1312 18.75 46.4312 18.75 47.6562 18.7562Z" fill="#8B4DF0"/>
<path id="Vector_2" d="M6.25 43.75C6.25 41.1281 6.25 38.7969 6.29063 36.7188H68.7094C68.75 38.7969 68.75 41.1281 68.75 43.75C68.75 46.3719 68.75 48.7031 68.7094 50.7812H6.29063C6.25 48.7031 6.25 46.3719 6.25 43.75ZM6.5 55.4688C6.85937 59.9688 7.74062 62.9187 9.9125 65.0875C13.5719 68.75 19.4656 68.75 31.25 68.75H43.75C55.5344 68.75 61.4281 68.75 65.0875 65.0875C67.2594 62.9187 68.1406 59.9656 68.5031 55.4688H6.5Z" fill="#8B4DF0"/>
</g>
</svg>
