<svg width="80" height="80" viewBox="0 0 80 80" fill="none" xmlns="http://www.w3.org/2000/svg">
<g id="solar:notes-bold-duotone">
<path id="Vector" fill-rule="evenodd" clip-rule="evenodd" d="M69.4332 35.7167L67.7066 42.1567C65.6899 49.6734 64.6832 53.4334 62.3999 55.8701C60.5982 57.7939 58.2667 59.1407 55.6999 59.7401C55.3766 59.8167 55.0499 59.8734 54.7166 59.9134C51.6666 60.2901 47.9432 59.2934 41.1699 57.4801C33.6532 55.4634 29.8932 54.4567 27.4566 52.1734C25.5321 50.3708 24.1853 48.038 23.5866 45.4701C22.8266 42.2167 23.8332 38.4601 25.8499 30.9434L27.5732 24.5034L28.3866 21.4867C29.9032 15.9334 30.9232 12.8767 32.8799 10.7867C34.6821 8.86406 37.0135 7.51853 39.5799 6.92006C42.8332 6.16006 46.5932 7.16673 54.1132 9.18339C61.6266 11.1967 65.3866 12.2034 67.8232 14.4834C69.7483 16.2869 71.0951 18.6209 71.6932 21.1901C72.4532 24.4434 71.4466 28.2001 69.4332 35.7167ZM36.8366 32.6834C36.9216 32.3662 37.0684 32.0689 37.2684 31.8085C37.4684 31.548 37.7178 31.3295 38.0022 31.1654C38.2867 31.0014 38.6007 30.895 38.9263 30.8523C39.2519 30.8096 39.5828 30.8315 39.8999 30.9167L55.9999 35.2334C56.3254 35.3106 56.6321 35.4523 56.9019 35.6502C57.1716 35.8481 57.3989 36.0981 57.5702 36.3854C57.7416 36.6727 57.8535 36.9915 57.8994 37.3229C57.9454 37.6543 57.9243 37.9915 57.8375 38.3146C57.7507 38.6376 57.5999 38.94 57.3942 39.2038C57.1884 39.4675 56.9317 39.6873 56.6395 39.8501C56.3472 40.0128 56.0252 40.1153 55.6926 40.1514C55.36 40.1874 55.0236 40.1564 54.7032 40.0601L38.6032 35.7467C37.9634 35.5749 37.4179 35.1561 37.0867 34.5823C36.7554 34.0085 36.6655 33.3234 36.8366 32.6834ZM34.2499 42.3467C34.4218 41.7069 34.8406 41.1614 35.4143 40.8302C35.9881 40.4989 36.6699 40.409 37.3099 40.5801L46.9699 43.1701C47.297 43.2455 47.6055 43.3861 47.877 43.5834C48.1486 43.7807 48.3777 44.0306 48.5506 44.3184C48.7235 44.6061 48.8366 44.9257 48.8834 45.2581C48.9301 45.5905 48.9094 45.9289 48.8225 46.2531C48.7356 46.5773 48.5843 46.8807 48.3777 47.1452C48.171 47.4097 47.9132 47.6299 47.6196 47.7926C47.326 47.9553 47.0027 48.0573 46.6689 48.0923C46.335 48.1274 45.9976 48.0949 45.6766 47.9967L36.0166 45.4101C35.6994 45.325 35.4021 45.1782 35.1416 44.9782C34.8812 44.7782 34.6627 44.5289 34.4986 44.2444C34.3345 43.9599 34.2281 43.6459 34.1855 43.3203C34.1428 42.9947 34.1647 42.6639 34.2499 42.3467Z" fill="#8B4DF0"/>
<path id="Vector_2" opacity="0.5" d="M54.7166 59.9167C54.0193 62.05 52.7948 63.9727 51.1566 65.5067C48.7199 67.7901 44.9599 68.7967 37.4432 70.8101C29.9266 72.8234 26.1666 73.8334 22.9166 73.0734C20.3486 72.4746 18.0158 71.1279 16.2132 69.2034C13.9299 66.7667 12.9199 63.0067 10.9066 55.4901L9.18323 49.0501C7.16656 41.5334 6.1599 37.7734 6.91656 34.5234C7.51627 31.955 8.86422 29.6222 10.7899 27.8201C13.2266 25.5367 16.9866 24.5301 24.5032 22.5134C25.9232 22.1334 27.2132 21.7867 28.3866 21.4834L27.5732 24.5034L25.8499 30.9434C23.8332 38.4601 22.8266 42.2167 23.5832 45.4701C24.1829 48.0384 25.5309 50.3712 27.4566 52.1734C29.8932 54.4567 33.6532 55.4634 41.1699 57.4801C47.9432 59.2934 51.6666 60.2934 54.7166 59.9167Z" fill="#8B4DF0"/>
</g>
</svg>
