<svg width="70" height="70" viewBox="0 0 70 70" fill="none" xmlns="http://www.w3.org/2000/svg">
<g id="nonicons:tmux-16" clip-path="url(#clip0_45_30)">
<path id="Vector" d="M7.65625 6.5625C7.36617 6.5625 7.08797 6.67773 6.88285 6.88285C6.67773 7.08797 6.5625 7.36617 6.5625 7.65625V62.3438C6.5625 62.9475 7.0525 63.4375 7.65625 63.4375H31.7188V6.5625H7.65625ZM38.2812 6.5625V31.7188H63.4375V7.65625C63.4375 7.36617 63.3223 7.08797 63.1171 6.88285C62.912 6.67773 62.6338 6.5625 62.3438 6.5625H38.2812ZM63.4375 38.2812H38.2812V63.4375H62.3438C62.6338 63.4375 62.912 63.3223 63.1171 63.1171C63.3223 62.912 63.4375 62.6338 63.4375 62.3438V38.2812ZM0 7.65625C0 3.43 3.43 0 7.65625 0H62.3438C66.57 0 70 3.43 70 7.65625V62.3438C70 64.3743 69.1934 66.3217 67.7575 67.7575C66.3217 69.1934 64.3743 70 62.3438 70H7.65625C5.62569 70 3.67829 69.1934 2.24246 67.7575C0.806638 66.3217 0 64.3743 0 62.3438L0 7.65625Z" fill="#8B4DF0"/>
</g>
<defs>
<clipPath id="clip0_45_30">
<rect width="70" height="70" fill="white"/>
</clipPath>
</defs>
</svg>
